<?xml version="1.0" encoding="UTF-8"?>
<svg width="839px" height="151px" viewBox="0 0 839 151" version="1.1" xmlns="http://www.w3.org/2000/svg" xmlns:xlink="http://www.w3.org/1999/xlink">
    <!-- Generator: Sketch 42 (36781) - http://www.bohemiancoding.com/sketch -->
    <title>AHMED</title>
    <desc>Created with Sketch.</desc>
    <defs></defs>
    <g id="Page-1" stroke="none" stroke-width="1" fill="none" fill-rule="evenodd">
        <g id="Artboard-2" transform="translate(-106.000000, -238.000000)" fill="#D8D8D8">
            <g id="AHMED" transform="translate(106.000000, 238.000000)">
                <polygon id="Triangle-7" points="20.5404896 28.2 39.895951 28.2 33.9708098 47.8545455 11.4552731 55.5454545"></polygon>
                <polygon id="Triangle-8" points="11.4552731 55.1181818 33.9708098 47.8545455 23.5 84.5"></polygon>
                <polygon id="Triangle-9" points="11.8502825 55.5454545 23.700565 84.1727273 21.3305085 91.4363636 0.395009416 91.4363636"></polygon>
                <polygon id="Triangle" points="28.440678 2.13636364 40.2909605 28.2 20.1454802 28.2"></polygon>
                <polygon id="Triangle-2" points="28.440678 2.13636364 51.3512241 2.13636364 39.895951 28.2"></polygon>
                <polygon id="Triangle-3" points="51.3512241 2.56363636 63.596516 41.0181818 39.895951 27.7727273"></polygon>
                <polygon id="Triangle-4" points="39.895951 27.7727273 63.596516 41.0181818 72 69.5 48.1911488 57.2545455"></polygon>
                <polygon id="Triangle-5" points="48.1911488 56.8272727 72 69 57.6713748 91.4363636"></polygon>
                <polygon id="Triangle-6" points="71.8917137 68.7909091 79.0018832 91.0090909 57.6713748 91.0090909"></polygon>
                <polygon id="Triangle-10" points="47.7961394 56.4 52.9312618 73.0636364 40.2909605 73.0636364"></polygon>
                <polygon id="Triangle-10" points="31.2057439 56.4 40.2909605 73.4909091 26.4656309 73.4909091"></polygon>
                <polygon id="Triangle-11" points="47.7961394 56.8272727 40.2909605 73.9181818 31.6007533 56.8272727"></polygon>
                <polygon id="Triangle-51" points="87 65 108 65 108 91.5"></polygon>
                <polygon id="Triangle-52" points="87 1.5 108.5 1.5 108.5 34.5"></polygon>
                <polygon id="Triangle-68" points="136.5 1 158 1 158 29.5"></polygon>
                <polygon id="Triangle-12" points="87 2 108 28.4909091 87 28.4909091"></polygon>
                <path d="M108.23258,0.709090909 L87,0.709090909 L108.23258,0.709090909 Z" id="Triangle-12" transform="translate(97.616290, 1.209091) scale(-1, -1) translate(-97.616290, -1.209091) "></path>
                <polygon id="Triangle-12" points="136.673258 1.70909091 158.003766 28.2 136.673258 28.2"></polygon>
                <path d="M158.003766,0.709090909 L136.5,0.709090909 L158.003766,0.709090909 Z" id="Triangle-12" transform="translate(147.251883, 1.209091) scale(-1, -1) translate(-147.251883, -1.209091) "></path>
                <polygon id="Triangle-12" points="136 63 158.003766 91.4363636 136 91.4363636"></polygon>
                <polygon id="Triangle-69" points="136 63 158 62.5 157.5 91.5"></polygon>
                <path d="M157.5,63.9454545 L137.463277,63.9454545 L157.5,63.9454545 Z" id="Triangle-12" transform="translate(147.481638, 64.445455) scale(-1, -1) translate(-147.481638, -64.445455) "></path>
                <polygon id="Triangle-12" points="86.9020716 64.9454545 108.23258 91.4363636 86.9020716 91.4363636"></polygon>
                <polygon id="Triangle-13" points="87.297081 28.2 108.23258 28.2 108.23258 64.9454545 87.297081 49.5636364"></polygon>
                <path d="M108.23258,64.3727273 L86.9020716,65.2454545 L108.23258,64.3727273 Z" id="Triangle-12" transform="translate(97.567326, 64.872727) scale(-1, -1) translate(-97.567326, -64.872727) "></path>
                <polygon id="Triangle-14" points="87.297081 49.5636364 108.23258 64.9454545 86.9020716 65.3727273"></polygon>
                <polygon id="Triangle-15" points="127 34.5 157.213748 46.1454545 136 52"></polygon>
                <polygon id="Triangle-16" points="136.278249 27.7727273 158.003766 28.2 158.003766 47 127 34.6090909 136.278249 34.6090909"></polygon>
                <polygon id="Triangle-17" points="158 45.5 158 64.9454545 136.278249 64.9454545 136.278249 51.7"></polygon>
                <polygon id="Triangle-19" points="127.193032 34.6090909 136.278249 51.7 108 34.6090909"></polygon>
                <polygon id="Triangle-18" points="108.23258 34.6090909 136.673258 51.7 108.23258 51.7"></polygon>
                <polygon id="Combined-Shape" points="237.5 2 259 2 259 31.5 237.5 33.5"></polygon>
                <polygon id="Combined-Shape" points="238 32 223 70.5 216.5 47"></polygon>
                <polygon id="Triangle-71" points="237.5 2.5 237.5 33 217 46.5"></polygon>
                <polygon id="Triangle-20" points="216.46516 45.7181818 223.18032 70.5 208.959981 70.5"></polygon>
                <polygon id="Triangle-21" points="205.799906 20.0818182 216.860169 46.1454545 208.959981 70.5 198.294727 43.5818182"></polygon>
                <path d="M233.845574,70.5 L223.18032,42.7272727 L233.845574,70.5 Z" id="Triangle-21" transform="translate(228.512947, 56.613636) scale(-1, 1) translate(-228.512947, -56.613636) "></path>
                <polygon id="Triangle-22" points="198.294727 2.13636364 205.799906 20.5090909 198.294727 44.0090909 193.554614 32.0454545"></polygon>
                <polygon id="Triangle-23" points="174.199153 1.70909091 198.294727 1.70909091 193.554614 32.4727273 174.199153 30.7636364"></polygon>
                <polygon id="Triangle-24" points="174.199153 30.7636364 193.949623 32.4727273 193.949623 56.4 184.864407 70.0727273 174.199153 58.9636364"></polygon>
                <polygon id="Triangle-25" points="174.199153 58.9636364 184.864407 70.0727273 174.199153 91.4363636"></polygon>
                <polygon id="Triangle-26" points="193.949623 56.4 193.949623 91.4363636 184.864407 69.6454545"></polygon>
                <polygon id="Triangle-27" points="184.864407 70.0727273 193.949623 91.4363636 174.199153 91.4363636"></polygon>
                <polygon id="Triangle-24" points="237.795669 32.4727273 258.731168 30.7636364 258.731168 55.9727273 249.250942 70.0727273 237.795669 58.5363636"></polygon>
                <polygon id="Triangle-25" points="237.795669 58.5363636 249.250942 70.0727273 238.190678 91.8636364"></polygon>
                <polygon id="Triangle-26" points="258.731168 55.9727273 258.731168 91.4363636 249.250942 70.0727273"></polygon>
                <polygon id="Triangle-27" points="249.250942 70.0727273 258.731168 91.4363636 238.190678 91.8636364"></polygon>
                <polygon id="Triangle-28" points="275.716573 1.28181818 297.047081 35.0363636 275.716573 28.2"></polygon>
                <polygon id="Triangle-29" points="276.111582 1.70909091 296.652072 1.70909091 296.652072 34.6090909"></polygon>
                <polygon id="Triangle-30" points="314.822505 2.56363636 332.597928 19.2272727 296.257062 19.2272727"></polygon>
                <polygon id="Triangle-31" points="296.257062 1.70909091 315.612524 1.70909091 296.257062 19.2272727"></polygon>
                <polygon id="Triangle-32" points="331.80791 2.13636364 331.80791 19.2272727 314.822505 2.13636364"></polygon>
                <polygon id="Triangle-30" points="311.662429 35.8909091 329.437853 52.5545455 293.096987 52.5545455"></polygon>
                <polygon id="Triangle-31" points="293.096987 35.0363636 312.452448 35.0363636 293.096987 52.5545455"></polygon>
                <polygon id="Triangle-32" points="329.042844 35.0363636 329.042844 52.1272727 310.872411 35.0363636"></polygon>
                <polygon id="Triangle-30" points="314.822505 75.2 332.597928 91.8636364 296.257062 91.8636364"></polygon>
                <polygon id="Triangle-31" points="296.257062 74.3454545 315.612524 74.3454545 296.257062 91.8636364"></polygon>
                <polygon id="Triangle-32" points="332.202919 74.3454545 332.202919 91.4363636 313.242467 74.3454545"></polygon>
                <polygon id="Triangle-33" points="275.716573 27.7727273 297.047081 34.6090909 292.701977 52.5545455 275.716573 61.5272727"></polygon>
                <polygon id="Triangle-34" points="275.716573 61.5272727 293.096987 52.5545455 296.652072 64.0909091 297.44209 91.4363636 275.716573 91.4363636"></polygon>
                <polygon id="Triangle-35" points="292.701977 52.1272727 296.257062 52.1272727 296.257062 62.8090909"></polygon>
                <polygon id="Triangle-36" points="346.028249 1.70909091 366.963748 49.9909091 346.028249 26.4909091"></polygon>
                <path d="M387,20.5 L419.5,52 C419.5,52 420.676949,63.1918644 409,75.5 C405.391978,79.3030506 401.17867,82.7628923 397.5,85 C396.178248,85.8037966 393.915407,87.5475682 391.5,88.5 C389.084593,89.4524318 382.5,91 382.5,91 L382.5,74.5 C382.5,74.5 390.523397,72.6790747 395.5,66.5 C400.476603,60.3209253 400.798479,52.1571607 401,49 C401.906254,34.8020221 387,20.5 387,20.5 Z" id="Triangle-72"></path>
                <polygon id="Triangle-37" points="346.028249 26.4909091 367 50.2045455 346.028249 73.9181818"></polygon>
                <polygon id="Triangle-38" points="366.963748 47 366.963748 91.8636364 345.633239 74.3454545"></polygon>
                <polygon id="Triangle-39" points="346.028249 73.9181818 367.753766 91.8636364 346.028249 91.8636364"></polygon>
                <polygon id="Triangle-40" points="366.963748 1.70909091 366.963748 50.4181818 345.633239 1.70909091"></polygon>
                <path d="M366.963748,2 C366.963748,2 385.675462,0.555281964 393,5.5 C400.324538,10.444718 393.5,28 393.5,28 C393.5,28 386.244232,21.2981086 382.5,20 C378.755768,18.7018914 366.963748,18.8 366.963748,18.8 L366.963748,2 Z" id="Triangle-41"></path>
                <path d="M364,75 C364,75 371.874834,76.5992731 380,75 C388.125166,73.4007269 394.5,68 394.5,68 L393.5,87 C393.5,87 389.805583,89.592274 381.5,91 C373.194417,92.407726 364,92 364,92 L364,75 Z" id="Triangle-41"></path>
                <polygon id="Triangle-42" points="383.949153 2.56363636 392.24435 4.27272727 391.454331 18.8"></polygon>
                <polygon id="Triangle-43" points="392.24435 4.27272727 400.144539 7.69090909 389.874294 23.9272727"></polygon>
                <path d="M400.144539,7.26363636 C400.144539,7.26363636 406.118655,12.1021863 410.809793,17.9454545 C415.500931,23.7887228 415.211076,25.131271 416.339925,27.7727273 C417.753236,31.0798128 419.068169,36.6010176 419.5,41.4454545 C419.931831,46.2898915 419.5,52.5545455 419.5,52.5545455 L389.874294,23.9272727 L400.144539,7.26363636 Z" id="Triangle-44"></path>
                <polygon id="Triangle-49" points="390.269303 18.8 385.9242 20.9363636 378.024011 18.8"></polygon>
                <polygon id="Triangle-50" points="390.269303 18.8 391.849341 25.6363636 385.9242 20.9363636"></polygon>
                <polygon id="Triangle-28" points="465.321092 1.70909091 486.651601 35.4636364 465.321092 28.6272727"></polygon>
                <polygon id="Triangle-45" points="482.306497 52.5545455 486.256591 52.5545455 486.256591 64.9454545"></polygon>
                <polygon id="Triangle-29" points="465.321092 1.70909091 485.861582 1.70909091 485.861582 34.6090909"></polygon>
                <polygon id="Triangle-30" points="504.427024 2.56363636 521 19.2272727 485.861582 19.2272727"></polygon>
                <polygon id="Triangle-31" points="485.861582 1.70909091 521 1.70909091 485.861582 19.2272727"></polygon>
                <polygon id="Triangle-32" points="521.01742 1.5 521.01742 19.6545455 504 1.5"></polygon>
                <polygon id="Triangle-30" points="501.266949 35.8909091 519.042373 52.5545455 482.701507 52.5545455"></polygon>
                <polygon id="Triangle-31" points="482.701507 35.0363636 502.056968 35.0363636 482.701507 52.5545455"></polygon>
                <polygon id="Triangle-32" points="518.252354 35.0363636 518.252354 52.1272727 500.081921 35.0363636"></polygon>
                <polygon id="Triangle-33" points="465.321092 28.2 486.651601 35.0363636 482.306497 52.9818182 465.321092 61.9545455"></polygon>
                <polygon id="Triangle-34" points="465.321092 61.9545455 482.701507 52.9818182 486.256591 64.5181818 487.04661 91.8636364 465.321092 91.8636364"></polygon>
                <polygon id="Triangle-7" points="542.742938 28.2 562.098399 28.2 556.173258 47.8545455 533.657721 55.5454545"></polygon>
                <polygon id="Triangle-8" points="533.657721 55.1181818 556.173258 47.8545455 545.5 85.5"></polygon>
                <polygon id="Triangle-9" points="534.052731 55.5454545 545.903013 84.1727273 543.532957 91.4363636 522.597458 91.4363636"></polygon>
                <polygon id="Triangle" points="550.643126 2.13636364 562.493409 28.2 542.347928 28.2"></polygon>
                <polygon id="Triangle-2" points="550.643126 2.13636364 573.553672 2.13636364 562.098399 28.2"></polygon>
                <polygon id="Triangle-3" points="573.553672 2.56363636 585.798964 41.0181818 562.098399 27.7727273"></polygon>
                <polygon id="Triangle-4" points="562.098399 27.7727273 585.798964 41.0181818 594 69 570.393597 57.2545455"></polygon>
                <polygon id="Triangle-5" points="570.393597 56.8272727 594.489171 68.5772727 579.873823 91.4363636"></polygon>
                <polygon id="Triangle-6" points="594.094162 68.7909091 601.204331 91.0090909 579.873823 91.0090909"></polygon>
                <polygon id="Triangle-10" points="570.5 56.5 575.5 73.5 562.5 73.5"></polygon>
                <polygon id="Triangle-10" points="553.408192 56.4 562.493409 73.4909091 548.668079 73.4909091"></polygon>
                <polygon id="Triangle-11" points="570.5 56.8272727 562.5 73.5 553.5 56.8272727"></polygon>
                <polygon id="Triangle-28" points="608.314501 2.56363636 629.645009 36.3181818 608.314501 29.4818182"></polygon>
                <polygon id="Triangle-45" points="625.694915 53.8363636 629.645009 53.8363636 629.645009 66.2272727"></polygon>
                <polygon id="Triangle-46" points="629.25 38.0272727 628.854991 42.7272727 637.545198 58.5363636 630.040019 58.5363636 625.299906 53.4090909"></polygon>
                <path d="M649.39548,38.4545455 L637.545198,59.8181818 L628.854991,42.7272727 C628.854991,42.7272727 638.149786,42.8151458 642.68032,41.8727273 C647.210855,40.9303087 649.39548,38.4545455 649.39548,38.4545455 Z" id="Triangle-54"></path>
                <polygon id="Triangle-57" points="661.245763 58.5363636 684.946328 91.4363636 637.150188 58.5363636"></polygon>
                <polygon id="Triangle-58" points="636.360169 57.6818182 684.156309 91.0090909 660.060734 92.7181818"></polygon>
                <polygon id="Triangle-56" points="648.605461 38.4545455 662.430791 49.9909091 657.295669 53.8363636"></polygon>
                <path d="M644.260358,18.3727273 L652.950565,18.3727273 L662.035782,50.8454545 L650.580508,41.0181818 C650.580508,41.0181818 648.731341,40.0407802 649.000471,38.0272727 C649.108954,37.21565 650.879523,36.8551023 651.370527,34.6090909 C651.861532,32.3630795 651.934779,26.2398841 651.370527,25.2090909 C649.779779,22.3030603 647.370234,21.0537256 646.235405,20.0818182 C645.100575,19.1099108 644.260358,18.3727273 644.260358,18.3727273 Z" id="Triangle-55"></path>
                <polygon id="Triangle-47" points="628.854991 1.70909091 647.815443 2.13636364 653.345574 18.8 628.854991 18.8"></polygon>
                <polygon id="Triangle-29" points="607.919492 1.70909091 628.854991 1.70909091 629.25 36.3181818"></polygon>
                <path d="M647.815443,2.13636364 C647.815443,2.13636364 654.275852,2.43822274 659.665725,4.7 C665.055598,6.96177726 664.435543,7.66842562 665.985876,8.97272727 C668.572647,11.1489898 670.860458,14.8548454 671.911017,17.9454545 C672.961576,21.0360637 672.701036,23.0727273 672.701036,23.0727273 C672.701036,23.0727273 673.360427,27.9752258 672.701036,32.9 C672.041644,37.8247742 670.659712,39.5608013 669.93597,41.4454545 C668.142864,46.1147697 662.035782,50.8454545 662.035782,50.8454545 L647.815443,2.13636364 Z" id="Triangle-48"></path>
                <polygon id="Triangle-53" points="649.000471 38.4545455 660.455744 58.9636364 637.545198 58.9636364"></polygon>
                <polygon id="Triangle-33" points="608.314501 29.0545455 629.645009 35.8909091 625.299906 53.8363636 608.314501 62.8090909"></polygon>
                <polygon id="Triangle-34" points="608.314501 62.8090909 625.694915 53.8363636 629.25 65.3727273 630.040019 92.7181818 608.314501 92.7181818"></polygon>
                <polygon id="Triangle-7" points="702.326742 28.2 721.682203 28.2 715.757062 47.8545455 693.241525 55.5454545"></polygon>
                <polygon id="Triangle-8" points="693.241525 55.1181818 715.757062 47.8545455 705.486817 83.3181818"></polygon>
                <polygon id="Triangle-9" points="693.636535 55.5454545 705.486817 84.1727273 703.116761 91.4363636 682.181262 91.4363636"></polygon>
                <polygon id="Triangle" points="710.22693 2.13636364 722.077213 28.2 701.931733 28.2"></polygon>
                <polygon id="Triangle-2" points="710.22693 2.13636364 733.137476 2.13636364 721.682203 28.2"></polygon>
                <polygon id="Triangle-3" points="733.137476 2.56363636 745.382768 41.0181818 721.682203 27.7727273"></polygon>
                <polygon id="Triangle-4" points="721.682203 27.7727273 745.382768 41.0181818 753.677966 67.9363636 729.977401 57.2545455"></polygon>
                <polygon id="Triangle-5" points="729.977401 56.8272727 754.072976 68.5772727 739.457627 91.4363636"></polygon>
                <polygon id="Triangle-6" points="753.677966 68.7909091 760.788136 91.0090909 739.457627 91.0090909"></polygon>
                <polygon id="Triangle-10" points="729.582392 56.4 734.717514 73.0636364 722.077213 73.0636364"></polygon>
                <polygon id="Triangle-10" points="712.991996 56.4 722.077213 73.4909091 708.251883 73.4909091"></polygon>
                <polygon id="Triangle-11" points="729.582392 56.8272727 722.077213 73.9181818 713.387006 56.8272727"></polygon>
                <polygon id="Triangle-59" points="818.064501 41.8727273 838.209981 62.3818182 818.064501 76.9090909"></polygon>
                <polygon id="Triangle-60" points="838.604991 41.8727273 838.604991 62.8090909 817.669492 41.8727273"></polygon>
                <polygon id="Triangle-61" points="838.209981 62.3818182 838.209981 86.7363636 817.669492 76.4818182"></polygon>
                <path d="M817.669492,76.0545455 L838.604991,86.7363636 C838.604991,86.7363636 826.927009,92.4450703 819.249529,93.1454545 C811.572049,93.8458388 804.239171,93.1454545 804.239171,93.1454545 L817.669492,76.0545455 Z" id="Triangle-62"></path>
                <path d="M768.293315,69.6454545 C768.293315,69.6454545 792.402099,74.6595609 802.264124,76.0545455 C812.126149,77.44953 819.644539,76.9090909 819.644539,76.9090909 L804.634181,94 C804.634181,94 798.547052,93.351224 792.388889,91.4363636 C786.230726,89.5215033 783.506258,87.6953077 780.933616,85.8818182 C777.958346,83.784511 774.612542,80.358365 772.243409,76.9090909 C769.874276,73.4598168 768.293315,69.6454545 768.293315,69.6454545 Z" id="Triangle-63"></path>
                <path d="M837.419962,8.54545455 L837.419962,29.4818182 L835.839925,29.4818182 C835.839925,29.4818182 829.030043,22.9542358 825.17467,20.9363636 C821.319298,18.9184915 812.929379,17.0909091 812.929379,17.0909091 L837.419962,8.54545455 Z" id="Triangle-64"></path>
                <path d="M791.59887,2.13636364 C791.59887,2.13636364 808.056652,-0.614108746 815.694444,0.427272727 C823.332236,1.4686542 838.604991,8.54545455 838.604991,8.54545455 L814.509416,17.8277287 C814.509416,17.8277287 810.988939,16.5164534 807.399247,16.6636364 C803.809555,16.8108193 802.501152,18.1342733 800.684087,18.8 C789.168115,23.0191593 765.133239,35.4636364 765.133239,35.4636364 C765.133239,35.4636364 765.989109,31.1138158 767.898305,26.0636364 C769.807502,21.0134569 771.640689,17.7032173 773.823446,14.9545455 C775.980507,12.2382322 779.889783,9.10132047 783.303672,6.83636364 C786.717561,4.5714068 791.59887,2.13636364 791.59887,2.13636364 Z" id="Triangle-65"></path>
                <path d="M797.919021,19.2272727 C797.919021,19.2272727 788.560951,29.4069762 786.858757,35.4636364 C785.156563,41.5202966 781.328625,73.0636364 781.328625,73.0636364 L768.293315,69.6454545 C768.293315,69.6454545 766.879966,65.3541942 765.923258,63.2363636 C763.080075,56.9425089 764.34322,35.4636364 764.34322,35.4636364 L797.919021,19.2272727 Z" id="Triangle-66"></path>
                <path d="M785.673729,36.7454545 C785.673729,36.7454545 785.274997,56.853884 788.833804,64.0909091 C792.392612,71.3279342 805.4242,76.9090909 805.4242,76.9090909 L780.933616,72.6363636 L785.673729,36.7454545 Z" id="Triangle-67"></path>
                <rect id="Rectangle" x="801.079096" y="41.8727273" width="17.3804143" height="17.0909091"></rect>
                <path d="M232.5,108.515704 L232.5,116.515704 C232.5,116.515704 229.267425,114.400552 227,113.515704 C224.732575,112.630855 211,109.015704 211,109.015704 C211,109.015704 213.394996,107.099921 217,106.515704 C218.500868,106.272477 221.150769,105.921413 223,106.015704 C224.849231,106.109994 227.790027,106.826377 228.5,107.015704 C229.716392,107.340075 232.5,108.515704 232.5,108.515704 Z" id="Triangle-73"></path>
                <path d="M207.138568,113.512989 C207.638568,112.512989 209.279669,109.322059 212.138568,109.012989 C214.997467,108.703919 226.638568,114.012989 226.638568,114.012989 C226.638568,114.012989 224.997837,113.66922 224.138568,113.512989 C223.279299,113.356758 221.138568,113.012989 221.138568,113.012989 C221.138568,113.012989 219.797795,112.948202 219.138568,113.012989 C218.012301,113.123676 217.193431,113.532108 216.638568,114.012989 C216.287642,114.317125 216.038063,114.344328 215.586582,115.012989 C215.135101,115.68165 210.138568,125.512989 210.138568,125.512989 C210.138568,125.512989 208.610257,124.370683 207.638568,123.012989 C206.666879,121.655296 206.383116,120.281569 206.138568,119.512989 C205.632451,117.922336 206.638568,114.512989 207.138568,113.512989 Z" id="Triangle-74"></path>
                <path d="M215,115 C215,115 214.609696,116.560235 215.5,117.5 C215.671798,117.681342 215.267107,117.951822 218.5,119 C220.174435,119.54289 223.30506,120.059092 226,121 C228.69494,121.940908 230.612787,123.16498 231.5,124 C234.953767,127.250588 233,134 233,134 C233,134 225.5,130 222.5,129 C221.20824,128.569413 219.919025,128.297055 218.5,128 C217.080975,127.702945 214.698574,127.232858 214,127 C211,126 210,125 210,125 L215,115 Z" id="Triangle-75"></path>
                <path d="M222,129 C222,129 226.425179,130.507694 228.5,131.5 C230.574821,132.492306 233.5,134.5 233.5,134.5 C233.5,134.5 232.15983,138.897734 229,140 C227.83588,140.406088 226.837236,141.684096 224,142 C222.897053,142.122805 221.104885,142.512477 219,142.5 C216.895115,142.487523 212,142 212,142 C212,142 222.028549,137.420805 224.5,134.5 C225.651305,133.139367 225.324054,131.486167 224.5,130.5 C223.675946,129.513833 222,129 222,129 Z" id="Triangle-76"></path>
                <path d="M206,131 C206,131 209.855239,134.316742 215.5,135.5 C220.187084,136.482509 222.858566,134.813213 224,134.5 C228.475066,136.737533 227.5,139.5 227.5,139.5 C227.5,139.5 221.395594,142 217.5,142 C215.903195,142 213.563952,141.995738 211.5,141.5 C209.436048,141.004262 206,139.5 206,139.5 L206,131 Z" id="Triangle-77"></path>
                <path d="M249,114 C249,114 257,114.5 260,119 C263.559251,124.338876 263,128 263,128 C263,128 263,134 260,138 C257,142 249.5,142.5 249.5,142.5 C249.5,142.5 254.5,135.5 254.5,128 C254.5,120.5 249,114 249,114 Z" id="Triangle-78"></path>
                <path d="M250.02,114.02 C250.02,114.02 244.52,121.02 244.52,128.52 C244.52,136.02 250.02,142.52 250.02,142.52 C250.02,142.52 243.52,142.52 239.52,138.52 C235.52,134.52 236.02,128.52 236.02,128.52 C236.02,128.52 236.02,121.52 240.52,117.52 C245.02,113.52 250.02,114.02 250.02,114.02 Z" id="Triangle-79"></path>
                <path d="M250,114 C250,114 252.10662,117.294456 253,119 C253.89338,120.705544 255.5,127 255.5,127 C255.5,127 253.5,120 249.5,120 C245.5,120 244,126.5 244,126.5 C244,126.5 245.541581,120.291801 247,118 C248.458419,115.708199 250,114 250,114 Z" id="Triangle-80"></path>
                <path d="M256.029596,131 C256.029596,131 255.020777,135.517638 254.029596,137.5 C253.038415,139.482362 250.029596,143 250.029596,143 C250.029596,143 246.328026,138.796619 245.029596,136 C243.731166,133.203381 244.029596,131 244.029596,131 C244.029596,131 246.529596,137 250.029596,137 C253.529596,137 256.029596,131 256.029596,131 Z" id="Triangle-81"></path>
                <rect id="Rectangle-3" x="268" y="114" width="8" height="28"></rect>
                <rect id="Rectangle-4" x="276" y="116" width="6" height="6"></rect>
                <rect id="Rectangle-5" x="265" y="116" width="3" height="6"></rect>
                <path d="M277.5,105 C277.5,105 276.441423,110.351459 276,113 C275.558577,115.648541 276,114 276,114 L268,114 C268,114 268.192212,110.54214 269,109 C269.387486,108.260254 271.053211,106.788798 273,106 C274.946789,105.211202 277.5,105 277.5,105 Z" id="Triangle-82"></path>
                <path d="M277.5,105.034654 C277.5,105.034654 279.986365,104.956682 281,105.034654 C282.013635,105.112626 284,105.534654 284,105.534654 C284,105.534654 279.5,110.034654 278,110.534654 C276.5,111.034654 276,112.534654 276,112.534654 L277.5,105.034654 Z" id="Triangle-83"></path>
                <path d="M284.5,106 L284.5,112 C284.5,112 282.616571,111.17178 281.5,111 C280.383429,110.82822 278,111 278,111 L284.5,106 Z" id="Triangle-84"></path>
                <rect id="Rectangle-6" x="286" y="108" width="8" height="27"></rect>
                <rect id="Rectangle-7" x="293" y="116" width="9" height="6"></rect>
                <rect id="Rectangle-8" x="283" y="116" width="3" height="6"></rect>
                <path d="M294,134 L296.5,142 C296.5,142 290,142 288,140 C286,138 286,134 286,134 L294,134 Z" id="Triangle-85"></path>
                <path d="M294,134 C294,134 294,135 296,136.5 C296.470214,136.85266 297.726322,137.186375 299,137 C300.273678,136.813625 302,136 302,136 L302,141.5 L297.5,142.5 L294,142.5 L294,134 Z" id="Triangle-86"></path>
                <polygon id="Rectangle-9" points="303 116 311 116 317 142 310.5 142"></polygon>
                <polygon id="Rectangle-10" points="320.5 116 326 116 319 142 313 142"></polygon>
                <polygon id="Rectangle-11" points="322 116 328 116 335 142 329 142"></polygon>
                <polygon id="Rectangle-12" points="337 116 345 116 337.5 142 331 142"></polygon>
                <path d="M360.751572,120.273199 C356.790636,118.273199 369.751572,118.773199 370.251572,120.773199 C370.751572,122.773199 370.251572,141.273199 370.251572,141.273199 L362.751572,141.273199 C362.751572,141.273199 364.712508,122.273199 360.751572,120.273199 Z" id="Rectangle-13"></path>
                <path d="M347.007283,130 C348.007283,128.5 349.007283,127 353.507283,126 C357.557175,125.100024 363.007283,125 363.007283,125 L364.007283,129.5 C364.007283,129.5 360.507283,129.5 356.507283,130.75 C352.507283,132 346.507283,136.5 346.507283,136.5 C346.507283,136.5 345.929022,134.517393 346.007283,133.5 C346.085544,132.482607 346.007283,131.5 347.007283,130 Z" id="Rectangle-14"></path>
                <path d="M357,130 C357,130 353.5,132.5 355.5,135.5 C357.5,138.5 364.5,133 364.5,133 L364.5,138.5 C364.5,138.5 359.5,142.5 353.5,142 C347.5,141.5 347,136 347,136 C347,136 349.959269,133.224439 352,132 C354.040731,130.775561 357,130 357,130 Z" id="Rectangle-15"></path>
                <path d="M349,116.040816 L356,115.040816 C356,115.040816 364.5,114.540816 368,117.040816 C371.5,119.540816 371,122.040816 371,122.040816 C371,122.040816 366.5,123.540816 363.5,122.040816 C360.5,120.540816 358.319817,120.540816 357,120.540816 C353.5,120.540816 349,122.540816 349,122.540816 L349,116.040816 Z" id="Rectangle-16"></path>
                <rect id="Rectangle-17" x="377" y="116" width="8" height="26"></rect>
                <path d="M384,118.5 C384,118.5 389,116 390.5,115.5 C392,115 394.5,115 394.5,115 L394.5,123 C394.5,123 392,122 389.5,122.5 C387,123 384,124.5 384,124.5 L384,118.5 Z" id="Rectangle-18"></path>
                <path d="M396.5,126 L422,126 L422,131 L396.5,131 C396.5,131 396,130.5 396,128.5 C396,126.5 396.5,126 396.5,126 Z" id="Rectangle-19"></path>
                <path d="M402.5,116.58442 C406.285562,114.464505 410,115.08442 410,115.08442 L414.5,122.58442 C414.5,122.58442 413.5,121.29221 411,120.58442 C408.5,119.87663 407.788663,119.940088 406.5,120.58442 C406.075865,120.796487 404.957292,121.958709 404.5,123.08442 C404.042708,124.210131 404,126.08442 404,126.08442 L396,127.58442 C396,127.58442 396.809017,123.389609 397.5,122.08442 C398.190983,120.77923 398.714438,118.704335 402.5,116.58442 Z" id="Rectangle-20"></path>
                <path d="M396.021856,129 L404.021856,131 C404.021856,131 404.109787,133.587573 405.521856,135 C406.933925,136.412427 409.931314,136.878829 411.021856,137 C415.521856,137.5 421.521856,134 421.521856,134 L421.521856,140.5 C421.521856,140.5 412.868565,144.969298 404.021856,141.5 C395.175147,138.030702 396.021856,129 396.021856,129 Z" id="Rectangle-22"></path>
                <path d="M408,115.018015 C408,115.018015 414.843222,114.624302 418,117.518015 C421.156778,120.411728 422.5,126.018015 422.5,126.018015 L410.5,126.018015 L414.5,126.018015 C414.5,126.018015 415.5,125.518015 414.5,123.018015 C413.673691,120.952241 408,115.018015 408,115.018015 Z" id="Rectangle-21"></path>
                <rect id="Rectangle-23" x="440" y="106" width="9" height="35"></rect>
                <path d="M442,106.159763 C442,106.159763 454.25,105.409763 460,107.159763 C465.75,108.909763 469,114.659763 469,114.659763 C469,114.659763 462,114.159763 455.5,113.159763 C449,112.159763 442,113.159763 442,113.159763 L442,106.159763 Z" id="Rectangle-24"></path>
                <path d="M440,134 C440,134 448.5,135 455.5,134 C462.5,133 470,130 470,130 C470,130 468.510152,136.929611 461.5,139.5 C454.489848,142.070389 440,141 440,141 L440,134 Z" id="Rectangle-25"></path>
                <path d="M450.904959,106 C450.904959,106 466.404959,109.5 468.904959,114 C471.404959,118.5 470.904959,127 469.904959,130.5 C468.904959,134 456.404959,140.5 456.404959,140.5 C456.404959,140.5 442.404959,136.5 452.904959,134.5 C463.404959,132.5 461.904959,124.513737 461.904959,122.5 C461.904959,120.474758 461.404959,115 455.904959,112.5 C450.404959,110 450.904959,106 450.904959,106 Z" id="Rectangle-26"></path>
                <path d="M474.5,125 L500,125 L500,130 L474.5,130 C474.5,130 474,129.5 474,127.5 C474,125.5 474.5,125 474.5,125 Z" id="Rectangle-192"></path>
                <path d="M480.5,115.58442 C484.285562,113.464505 488,114.08442 488,114.08442 L492.5,121.58442 C492.5,121.58442 492,119.70779 489.5,119 C487,118.29221 485.788663,118.940088 484.5,119.58442 C484.075865,119.796487 482.957292,120.958709 482.5,122.08442 C482.042708,123.210131 482,125.08442 482,125.08442 L474,126.58442 C474,126.58442 474.809017,122.389609 475.5,121.08442 C476.190983,119.77923 476.714438,117.704335 480.5,115.58442 Z" id="Rectangle-202"></path>
                <path d="M474.021856,128 L482.021856,130 C482.021856,130 482.109787,132.587573 483.521856,134 C484.933925,135.412427 487.931314,135.878829 489.021856,136 C493.521856,136.5 499.521856,133 499.521856,133 L499.521856,139.5 C499.521856,139.5 490.868565,143.969298 482.021856,140.5 C473.175147,137.030702 474.021856,128 474.021856,128 Z" id="Rectangle-222"></path>
                <path d="M486,114.11583 C486,114.11583 493.5,113.097815 497,117.097815 C500.5,121.097815 500,125.597815 500,125.597815 L488.5,125.11583 L492.5,125.11583 C492.5,125.11583 493.341484,124.65544 492.5,122.11583 C491.5,119.097815 486,114.11583 486,114.11583 Z" id="Rectangle-212"></path>
                <polygon id="Rectangle-92" points="503 116 511 116 517 142 510.5 142"></polygon>
                <polygon id="Rectangle-102" points="520.5 116 526 116 519 142 513 142"></polygon>
                <path d="M530.5,125 L556,125 L556,130 L530.5,130 C530.5,130 530,129.5 530,127.5 C530,125.5 530.5,125 530.5,125 Z" id="Rectangle-193"></path>
                <path d="M536.5,115.58442 C540.285562,113.464505 544,114.08442 544,114.08442 L548.5,121.58442 C548.5,121.58442 548,119.70779 545.5,119 C543,118.29221 541.788663,118.940088 540.5,119.58442 C540.075865,119.796487 538.957292,120.958709 538.5,122.08442 C538.042708,123.210131 538,125.08442 538,125.08442 L530,126.58442 C530,126.58442 530.809017,122.389609 531.5,121.08442 C532.190983,119.77923 532.714438,117.704335 536.5,115.58442 Z" id="Rectangle-203"></path>
                <path d="M530.021856,128 L538.021856,130 C538.021856,130 538.109787,132.587573 539.521856,134 C540.933925,135.412427 543.931314,135.878829 545.021856,136 C549.521856,136.5 555.521856,133 555.521856,133 L555.521856,139.5 C555.521856,139.5 546.868565,143.969298 538.021856,140.5 C529.175147,137.030702 530.021856,128 530.021856,128 Z" id="Rectangle-223"></path>
                <path d="M542,114.11583 C542,114.11583 549.5,113.097815 553,117.097815 C556.5,121.097815 556,125.597815 556,125.597815 L544.5,125.11583 L548.5,125.11583 C548.5,125.11583 549.341484,124.65544 548.5,122.11583 C547.5,119.097815 542,114.11583 542,114.11583 Z" id="Rectangle-213"></path>
                <rect id="Rectangle-27" x="561" y="105" width="8" height="36"></rect>
                <path d="M587,113 C587,113 595,113.5 598,118 C601.559251,123.338876 601,127 601,127 C601,127 601,133 598,137 C595,141 587.5,141.5 587.5,141.5 C587.5,141.5 592.5,134.5 592.5,127 C592.5,119.5 587,113 587,113 Z" id="Triangle-782"></path>
                <path d="M587.02,113.02 C587.02,113.02 581.52,120.02 581.52,127.52 C581.52,135.02 587.02,141.52 587.02,141.52 C587.02,141.52 580.52,141.52 576.52,137.52 C572.52,133.52 573.02,127.52 573.02,127.52 C573.02,127.52 573.02,120.52 577.52,116.52 C582.02,112.52 587.02,113.02 587.02,113.02 Z" id="Triangle-792"></path>
                <path d="M587,113 C587,113 589.10662,116.294456 590,118 C590.89338,119.705544 592.5,126 592.5,126 C592.5,126 590.5,119 586.5,119 C582.5,119 581,125.5 581,125.5 C581,125.5 582.541581,119.291801 584,117 C585.458419,114.708199 587,113 587,113 Z" id="Triangle-802"></path>
                <path d="M593.029596,130 C593.029596,130 592.020777,134.517638 591.029596,136.5 C590.038415,138.482362 587.029596,142 587.029596,142 C587.029596,142 583.328026,137.796619 582.029596,135 C580.731166,132.203381 581.029596,130 581.029596,130 C581.029596,130 583.529596,136 587.029596,136 C590.529596,136 593.029596,130 593.029596,130 Z" id="Triangle-812"></path>
                <rect id="Rectangle-28" x="605" y="115" width="8" height="36"></rect>
                <path d="M613,117.586939 C613,117.586939 620,111.086939 626.5,115.586939 C633,120.086939 633,131.086939 628,138.086939 C623,145.086939 613,140.086939 613,140.086939 L613,135.086939 C613,132.461618 622.5,140.586939 622.5,127.908521 C622.5,115.230104 613,122.086939 613,122.086939 L613,117.586939 Z" id="Rectangle-29"></path>
                <path d="M635.5,126 L661,126 L661,131 L635.5,131 C635.5,131 635,130.5 635,128.5 C635,126.5 635.5,126 635.5,126 Z" id="Rectangle-194"></path>
                <path d="M641.5,116.58442 C645.285562,114.464505 649,115.08442 649,115.08442 L653.5,122.58442 C653.5,122.58442 653,120.70779 650.5,120 C648,119.29221 646.788663,119.940088 645.5,120.58442 C645.075865,120.796487 643.957292,121.958709 643.5,123.08442 C643.042708,124.210131 643,126.08442 643,126.08442 L635,127.58442 C635,127.58442 635.809017,123.389609 636.5,122.08442 C637.190983,120.77923 637.714438,118.704335 641.5,116.58442 Z" id="Rectangle-204"></path>
                <path d="M635.021856,129 L643.021856,131 C643.021856,131 643.109787,133.587573 644.521856,135 C645.933925,136.412427 648.931314,136.878829 650.021856,137 C654.521856,137.5 660.521856,134 660.521856,134 L660.521856,140.5 C660.521856,140.5 651.868565,144.969298 643.021856,141.5 C634.175147,138.030702 635.021856,129 635.021856,129 Z" id="Rectangle-224"></path>
                <path d="M647,115.11583 C647,115.11583 654.5,114.097815 658,118.097815 C661.5,122.097815 661,126.597815 661,126.597815 L649.5,126.11583 L653.5,126.11583 C653.5,126.11583 654.341484,125.65544 653.5,123.11583 C652.5,120.097815 647,115.11583 647,115.11583 Z" id="Rectangle-214"></path>
                <rect id="Rectangle-172" x="666" y="117" width="8" height="26"></rect>
                <path d="M673,120.5 C673,120.5 678,118 679.5,117.5 C681,117 683.5,117 683.5,117 L683.5,125 C683.5,125 681,124 678.5,124.5 C676,125 673,126.5 673,126.5 L673,120.5 Z" id="Rectangle-182"></path>
            </g>
        </g>
    </g>
</svg>