<?xml version="1.0" encoding="UTF-8"?>
<svg width="72px" height="107px" viewBox="0 0 72 107" version="1.1" xmlns="http://www.w3.org/2000/svg" xmlns:xlink="http://www.w3.org/1999/xlink">
    <!-- Generator: Sketch 42 (36781) - http://www.bohemiancoding.com/sketch -->
    <title>E</title>
    <desc>Created with Sketch.</desc>
    <defs></defs>
    <g id="Page-1" stroke="none" stroke-width="1" fill="none" fill-rule="evenodd">
        <g id="Artboard-2" transform="translate(-435.000000, -227.000000)" fill="#D8D8D8">
            <g id="E" transform="translate(435.000000, 227.000000)">
                <polygon id="Triangle-28" points="0 0.5 27 40 0 32"></polygon>
                <polygon id="Triangle-29" points="0.5 1 26.5 1 26.5 39.5"></polygon>
                <polygon id="Triangle-30" points="49.5 2 72 21.5 26 21.5"></polygon>
                <polygon id="Triangle-31" points="26 1 50.5 1 26 21.5"></polygon>
                <polygon id="Triangle-32" points="71 1.5 71 21.5 49.5 1.5"></polygon>
                <polygon id="Triangle-30" points="45.5 41 68 60.5 22 60.5"></polygon>
                <polygon id="Triangle-31" points="22 40 46.5 40 22 60.5"></polygon>
                <polygon id="Triangle-32" points="67.5 40 67.5 60 44.5 40"></polygon>
                <polygon id="Triangle-30" points="49.5 87 72 106.5 26 106.5"></polygon>
                <polygon id="Triangle-31" points="26 86 50.5 86 26 106.5"></polygon>
                <polygon id="Triangle-32" points="71.5 86 71.5 106 47.5 86"></polygon>
                <polygon id="Triangle-33" points="0 31.5 27 39.5 21.5 60.5 0 71"></polygon>
                <polygon id="Triangle-34" points="0 71 22 60.5 26.5 74 27.5 106 0 106"></polygon>
                <polygon id="Triangle-35" points="21.5 60 26 60 26 72.5"></polygon>
            </g>
        </g>
    </g>
</svg>