<?xml version="1.0" encoding="UTF-8"?>
<svg width="108px" height="106px" viewBox="0 0 108 106" version="1.1" xmlns="http://www.w3.org/2000/svg" xmlns:xlink="http://www.w3.org/1999/xlink">
    <!-- Generator: Sketch 42 (36781) - http://www.bohemiancoding.com/sketch -->
    <title>M</title>
    <desc>Created with Sketch.</desc>
    <defs></defs>
    <g id="Page-1" stroke="none" stroke-width="1" fill="none" fill-rule="evenodd">
        <g id="Artboard-2" transform="translate(-306.000000, -228.000000)" fill="#D8D8D8">
            <g id="M" transform="translate(306.000000, 228.000000)">
                <polygon id="Triangle-20" points="54 51.5 62.5 80.5 44.5 80.5"></polygon>
                <polygon id="Triangle-21" points="40.5 21.5 54.5 52 44.5 80.5 31 49"></polygon>
                <polygon id="Triangle-21" transform="translate(65.000000, 51.250000) scale(-1, 1) translate(-65.000000, -51.250000) " points="62.5 22 76 51.25 67.5 80.5 54 48"></polygon>
                <polygon id="Triangle-22" points="31 0.5 40.5 22 31 49.5 25 35.5"></polygon>
                <polygon id="Triangle-22" transform="translate(74.500000, 24.500000) scale(-1, 1) translate(-74.500000, -24.500000) " points="72 0.5 81.5 22 73.25 48.5 67.5 35.5"></polygon>
                <polygon id="Triangle-23" points="0.5 -2.27373675e-13 31 -2.27373675e-13 25 36 0.5 34"></polygon>
                <polygon id="Triangle-23" transform="translate(92.250000, 18.000000) scale(-1, 1) translate(-92.250000, -18.000000) " points="77 0 107.5 0 103 36 77 34"></polygon>
                <polygon id="Triangle-24" points="0.5 34 25.5 36 25.5 64 14 80 0.5 67"></polygon>
                <polygon id="Triangle-25" points="0.5 67 14 80 0.5 105"></polygon>
                <polygon id="Triangle-26" points="25.5 64 25.5 105 14 79.5"></polygon>
                <polygon id="Triangle-27" points="14 80 25.5 105 0.5 105"></polygon>
                <polygon id="Triangle-24" points="81 36 107.5 34 107.5 63.5 95.5 80 81 66.5"></polygon>
                <polygon id="Triangle-25" points="81 66.5 95.5 80 81.5 105.5"></polygon>
                <polygon id="Triangle-26" points="107.5 63.5 107.5 105 95.5 80"></polygon>
                <polygon id="Triangle-27" points="95.5 80 107.5 105 81.5 105.5"></polygon>
            </g>
        </g>
    </g>
</svg>